<svg width="36" height="43" viewBox="0 0 36 43" fill="none" xmlns="http://www.w3.org/2000/svg">
<g filter="url(#filter0_d)">
<ellipse cx="18.0381" cy="15.0381" rx="15.0381" ry="15.0381" fill="white"/>
</g>
<g filter="url(#filter1_d)">
<path d="M18.0378 37.5953L21.7588 28.7335H14.3168L18.0378 37.5953Z" fill="white"/>
</g>
<path d="M24.75 19.5001V13.5001C24.75 13.1022 24.592 12.7207 24.3107 12.4394C24.0294 12.1581 23.6478 12.0001 23.25 12.0001H17.25V16.5001M11.25 11.2501V19.5001V11.2501ZM11.25 16.5001H24.75H11.25Z" stroke="#334155" stroke-width="1.5" stroke-linecap="round" stroke-linejoin="round"/>
<path d="M14.25 14.25C14.6642 14.25 15 13.9142 15 13.5C15 13.0858 14.6642 12.75 14.25 12.75C13.8358 12.75 13.5 13.0858 13.5 13.5C13.5 13.9142 13.8358 14.25 14.25 14.25Z" stroke="#334155" stroke-width="1.4375" stroke-linecap="round" stroke-linejoin="round"/>
<defs>
<filter id="filter0_d" x="0.732349" y="0" width="34.6115" height="34.6115" filterUnits="userSpaceOnUse" color-interpolation-filters="sRGB">
<feFlood flood-opacity="0" result="BackgroundImageFix"/>
<feColorMatrix in="SourceAlpha" type="matrix" values="0 0 0 0 0 0 0 0 0 0 0 0 0 0 0 0 0 0 127 0"/>
<feOffset dy="2.26765"/>
<feGaussianBlur stdDeviation="1.13383"/>
<feColorMatrix type="matrix" values="0 0 0 0 0 0 0 0 0 0 0 0 0 0 0 0 0 0 0.25 0"/>
<feBlend mode="normal" in2="BackgroundImageFix" result="effect1_dropShadow"/>
<feBlend mode="normal" in="SourceGraphic" in2="effect1_dropShadow" result="shape"/>
</filter>
<filter id="filter1_d" x="12.0492" y="28.7335" width="11.9772" height="13.397" filterUnits="userSpaceOnUse" color-interpolation-filters="sRGB">
<feFlood flood-opacity="0" result="BackgroundImageFix"/>
<feColorMatrix in="SourceAlpha" type="matrix" values="0 0 0 0 0 0 0 0 0 0 0 0 0 0 0 0 0 0 127 0"/>
<feOffset dy="2.26765"/>
<feGaussianBlur stdDeviation="1.13383"/>
<feColorMatrix type="matrix" values="0 0 0 0 0 0 0 0 0 0 0 0 0 0 0 0 0 0 0.25 0"/>
<feBlend mode="normal" in2="BackgroundImageFix" result="effect1_dropShadow"/>
<feBlend mode="normal" in="SourceGraphic" in2="effect1_dropShadow" result="shape"/>
</filter>
</defs>
</svg>
