<svg class="logo" width="97" height="80" viewBox="0 0 75 64" fill="none" xmlns="http://www.w3.org/2000/svg">
  <path d="M41.2035 1L44.1664 6.18519L47.1294 1" stroke="#334155" stroke-width="2" stroke-linecap="round" stroke-linejoin="round"/>
  <path d="M36.0184 22.7778L44.0492 6.44443L59.7221 37.5556H47.8055" stroke="#334155" stroke-width="2" stroke-linecap="round" stroke-linejoin="round"/>
  <path d="M28.4968 38.5761H15.2779L25.9598 18.2963L38.1105 42L46.389 25.4074" stroke="#334155" stroke-width="2" stroke-linecap="round" stroke-linejoin="round"/>
  <path d="M0.384 52.228H2.424L4.308 57.772L4.032 57.652L5.676 53.56L6.48 55.948L3.936 61.408L0.384 52.228ZM4.812 52.228H6.54L8.712 57.592L8.4 57.544L10.02 52.228H11.892L8.484 61.384L4.812 52.228ZM12.6699 61L16.6539 51.82H16.7499L20.7339 61H18.7179L16.1739 54.544L17.4339 53.68L14.3859 61H12.6699ZM15.3939 57.808H18.0459L18.6579 59.272H14.8539L15.3939 57.808ZM31.3694 61.36L24.6734 55.312L25.1894 55.6L25.2254 61H23.4614V51.82H23.5334L30.0854 57.844L29.7014 57.676L29.6654 52.168H31.4174V61.36H31.3694ZM35.1319 61V52.168H37.7719C38.6599 52.168 39.4159 52.3 40.0399 52.564C40.6639 52.828 41.1639 53.18 41.5399 53.62C41.9239 54.06 42.2039 54.552 42.3799 55.096C42.5559 55.64 42.6439 56.188 42.6439 56.74C42.6439 57.396 42.5239 57.988 42.2839 58.516C42.0519 59.036 41.7319 59.484 41.3239 59.86C40.9159 60.228 40.4439 60.512 39.9079 60.712C39.3719 60.904 38.8039 61 38.2039 61H35.1319ZM36.8719 59.32H37.9039C38.3439 59.32 38.7439 59.264 39.1039 59.152C39.4639 59.032 39.7719 58.86 40.0279 58.636C40.2919 58.412 40.4919 58.132 40.6279 57.796C40.7719 57.452 40.8439 57.06 40.8439 56.62C40.8439 56.044 40.7479 55.576 40.5559 55.216C40.3719 54.848 40.1399 54.564 39.8599 54.364C39.5879 54.164 39.3079 54.028 39.0199 53.956C38.7319 53.876 38.4879 53.836 38.2879 53.836H36.8719V59.32ZM45.8297 52.168H51.8537V53.848H47.5697V55.732H51.3617V57.412H47.5697V59.32H52.0217V61H45.8297V52.168ZM57.9379 52.168C58.4899 52.168 58.9819 52.24 59.4139 52.384C59.8459 52.52 60.2059 52.72 60.4939 52.984C60.7899 53.24 61.0139 53.552 61.1659 53.92C61.3179 54.28 61.3939 54.688 61.3939 55.144C61.3939 55.504 61.3379 55.864 61.2259 56.224C61.1219 56.584 60.9459 56.912 60.6979 57.208C60.4579 57.504 60.1379 57.744 59.7379 57.928C59.3379 58.104 58.8419 58.192 58.2499 58.192H57.0019V61H55.2619V52.168H57.9379ZM58.2379 56.512C58.5019 56.512 58.7219 56.468 58.8979 56.38C59.0739 56.292 59.2099 56.18 59.3059 56.044C59.4099 55.908 59.4819 55.768 59.5219 55.624C59.5699 55.472 59.5939 55.332 59.5939 55.204C59.5939 55.108 59.5779 54.988 59.5459 54.844C59.5219 54.692 59.4659 54.54 59.3779 54.388C59.2899 54.236 59.1539 54.108 58.9699 54.004C58.7939 53.9 58.5539 53.848 58.2499 53.848H57.0019V56.512H58.2379ZM59.8699 57.592L62.0539 61H60.0259L57.7939 57.64L59.8699 57.592ZM72.8364 61.36L66.1404 55.312L66.6564 55.6L66.6924 61H64.9284V51.82H65.0004L71.5524 57.844L71.1684 57.676L71.1324 52.168H72.8844V61.36H72.8364Z" fill="#334155"/>
</svg>
