<svg width="152" height="167" viewBox="0 0 152 167" fill="none" xmlns="http://www.w3.org/2000/svg">
<path d="M78.4367 106.747L64.3519 155.598L60.4082 150.813C62.5077 135.985 63.1121 120.983 62.2125 106.034C60.6079 82.1434 78.4367 106.747 78.4367 106.747Z" fill="#F4A28C"/>
<path opacity="0.08" d="M78.4367 106.747L64.3519 155.598L60.4082 150.813C62.5077 135.985 63.1121 120.983 62.2125 106.034C60.6079 82.1434 78.4367 106.747 78.4367 106.747Z" fill="black"/>
<path d="M46.6949 24.2212L13.5148 32.1013C8.21895 33.3591 4.94539 38.6718 6.20314 43.9677L19.9711 101.939C21.2289 107.235 26.5417 110.509 31.8376 109.251L65.0176 101.371C70.3135 100.113 73.5871 94.8002 72.3293 89.5043L58.5614 31.5329C57.3036 26.237 51.9908 22.9634 46.6949 24.2212Z" fill="#CF5C36"/>
<path opacity="0.08" d="M46.6949 24.2212L13.5148 32.1013C8.21895 33.3591 4.94539 38.6718 6.20314 43.9677L19.9711 101.939C21.2289 107.235 26.5417 110.509 31.8376 109.251L65.0176 101.371C70.3135 100.113 73.5871 94.8002 72.3293 89.5043L58.5614 31.5329C57.3036 26.237 51.9908 22.9634 46.6949 24.2212Z" fill="black"/>
<path d="M57.2066 21.7157L24.0266 29.5958C18.7307 30.8536 15.4571 36.1663 16.7149 41.4622L30.4829 99.4337C31.7406 104.73 37.0534 108.003 42.3493 106.745L75.5294 98.8653C80.8253 97.6075 84.0988 92.2947 82.8411 86.9989L69.0731 29.0274C67.8153 23.7315 62.5025 20.4579 57.2066 21.7157Z" fill="#CF5C36"/>
<path d="M65.6995 41.7575C65.6995 41.7575 78.3651 70.1909 98.797 67.6664C119.229 65.1418 133.97 27.4873 133.97 27.4873L127.109 24.0214C127.109 24.0214 103.575 62.8811 91.4515 43.7757L89.7399 42.2496C86.4468 39.3196 82.2176 37.6587 77.8107 37.5646C73.4038 37.4705 69.1076 38.9494 65.6924 41.7361L65.6995 41.7575Z" fill="#CBD5E1"/>
<path opacity="0.35" d="M65.6995 41.7575C65.6995 41.7575 78.3651 70.1909 98.797 67.6664C119.229 65.1418 133.97 27.4873 133.97 27.4873L127.109 24.0214C127.109 24.0214 103.575 62.8811 91.4515 43.7757L89.7399 42.2496C86.4468 39.3196 82.2176 37.6587 77.8107 37.5646C73.4038 37.4705 69.1076 38.9494 65.6924 41.7361L65.6995 41.7575Z" fill="white"/>
<path d="M58.3828 9.62285C58.3828 9.62285 60.2228 14.023 60.4296 17.275C60.4498 17.59 60.4075 17.9059 60.3049 18.2044C60.2024 18.503 60.0417 18.7782 59.8322 19.0143C59.6226 19.2503 59.3684 19.4425 59.0841 19.5798C58.7998 19.717 58.4912 19.7966 58.176 19.8138C56.5358 19.8923 54.2965 19.5214 53.0199 17.2892L50.3884 13.7235C49.9352 12.961 49.7302 12.0765 49.8018 11.1923C49.8733 10.3082 50.2179 9.46819 50.7877 8.78845C52.756 6.19258 57.3915 6.90573 58.3828 9.62285Z" fill="#F4A28C"/>
<path d="M50.9016 15.4564L51.8501 31.0531L60.408 29.912L56.3858 19.3003L50.9016 15.4564Z" fill="#F4A28C"/>
<path d="M57.313 10.172C55.9321 10.6815 54.4958 11.0262 53.0341 11.1989C53.6376 11.6848 54.0855 12.3369 54.3225 13.0745C54.5595 13.8121 54.5752 14.603 54.3677 15.3495C54.1803 16.0774 53.7455 16.7175 53.1378 17.1599C52.5302 17.6023 51.7875 17.8195 51.0373 17.7742L49.233 11.8978C48.9471 11.0696 48.8909 10.1793 49.0704 9.32163C49.25 8.46398 49.6586 7.67101 50.2528 7.02699C50.7624 6.46431 51.3105 5.93769 51.893 5.45093C53.355 4.23856 56.172 4.56662 57.3201 2.94776C57.4354 2.7868 57.5904 2.6584 57.77 2.57502C57.9496 2.49165 58.1477 2.45613 58.3451 2.47192C58.5424 2.48771 58.7324 2.55427 58.8964 2.66514C59.0605 2.776 59.1931 2.92741 59.2813 3.10465C60.1157 4.79482 60.7076 7.69023 58.6109 9.43032C58.224 9.75012 57.785 10.001 57.313 10.172Z" fill="#334155"/>
<path d="M54.8026 15.057C54.8026 15.057 54.2107 13.3241 52.9413 13.8803C51.6719 14.4366 52.5134 16.954 54.3676 16.6117L54.8026 15.057Z" fill="#F4A28C"/>
<path d="M59.4026 12.4541L61.2283 13.7948C61.3311 13.8722 61.4129 13.9741 61.4663 14.0913C61.5196 14.2085 61.5427 14.3371 61.5335 14.4655C61.5242 14.5939 61.483 14.7179 61.4135 14.8262C61.344 14.9346 61.2484 15.0238 61.1356 15.0856L59.5096 15.9699L59.4026 12.4541Z" fill="#F4A28C"/>
<path opacity="0.31" d="M56.507 19.5998C55.4488 19.5556 54.4228 19.2226 53.5403 18.6371C53.5403 18.6371 53.4333 22.0531 57.6623 22.6379L56.507 19.5998Z" fill="#CE8172"/>
<path d="M67.6824 25.8399C67.6824 25.8399 82.7727 25.3693 88.1214 31.0531C93.47 36.7369 102.434 48.397 90.9383 67.8233L67.6824 25.8399Z" fill="#CF5C36"/>
<path d="M56.8994 95.2298C56.8994 95.2298 61.3994 107.51 69.2156 108.687C74.0365 109.4 83.1506 109.6 89.4406 109.636C91.3784 109.65 93.2578 110.301 94.7898 111.487C96.3217 112.674 97.4215 114.331 97.92 116.204L102.313 132.713L104.845 133.426L104.759 111.796C104.747 108.59 103.721 105.469 101.83 102.879C99.9382 100.29 97.277 98.3637 94.2259 97.3764L85.9176 94.6736L56.8994 95.2298Z" fill="#F4A28C"/>
<path d="M60.95 104.508L61.6845 125.111L76.24 121.602L79.3279 106.747L60.95 104.508Z" fill="#334155"/>
<path d="M42.301 32.9002C42.301 32.9002 56.2645 23.7504 72.2534 29.2488C88.2423 34.7472 92.0648 41.8502 91.587 58.7306C91.1092 75.6109 85.9174 94.6806 85.9174 94.6806L56.8992 95.2298C56.8992 95.2298 7.86278 55.2932 42.301 32.9002Z" fill="#CBD5E1"/>
<path opacity="0.08" d="M49.7963 33.0927C49.7963 33.0927 67.0261 32.4652 67.6822 52.0127H71.3621L74.3359 70.4834C74.3359 70.4834 79.6988 73.0507 77.3739 76.9731C77.3739 76.9731 74.5213 84.6537 79.328 94.8019L56.8993 95.2227C56.8993 95.2227 45.1323 85.3526 37.5372 73.7924C29.9421 62.2322 42.6006 46.8423 42.6006 46.8423L49.7963 33.0927Z" fill="black"/>
<path d="M56.8994 95.2298C56.8994 95.2298 59.752 109.158 69.5222 109.685C79.2924 110.213 92.3431 111.896 92.3431 111.896L97.8701 97.6759L85.939 94.6807L56.8994 95.2298Z" fill="#334155"/>
<path d="M37.7939 33.6276C37.7939 33.6276 46.3518 28.9136 53.5689 35.6101C60.786 42.3066 67.9389 63.3732 36.061 74.3201C36.061 74.3201 31.618 68.6149 31.0689 65.7622C30.5198 62.9096 20.286 44.061 37.7939 33.6276Z" fill="#CF5C36"/>
<path d="M51.1156 47.6839C49.3541 39.6894 39.4841 36.6942 33.2868 42.0428C22.2115 51.5919 4.61087 69.6133 10.202 83.6197C18.1893 103.638 61.6774 78.5206 61.6774 78.5206L59.7876 71.5959C59.7876 71.5959 29.7638 83.1989 26.2694 74.3915C23.4239 67.3241 54.2321 61.897 51.1156 47.6839Z" fill="#CBD5E1"/>
<path d="M65.3295 52.1915L61.8733 52.7068L77.3977 156.832L80.8539 156.316L65.3295 52.1915Z" fill="#CF5C36"/>
<path opacity="0.35" d="M51.1156 47.6839C49.3541 39.6894 39.4841 36.6942 33.2868 42.0428C22.2115 51.5919 4.61087 69.6133 10.202 83.6197C18.1893 103.638 61.6774 78.5206 61.6774 78.5206L59.7876 71.5959C59.7876 71.5959 29.7638 83.1989 26.2694 74.3915C23.4239 67.3241 54.2321 61.897 51.1156 47.6839Z" fill="white"/>
<path d="M60.073 72.6442C60.073 72.6442 63.2394 69.649 65.0009 70.7044C66.7624 71.7599 67.9961 71.1894 70.1071 71.5602C72.218 71.9311 73.1023 80.2322 61.4423 77.6719L60.073 72.6442Z" fill="#334155"/>
<path d="M121.119 17.7813L129.128 47.0278L139.026 40.2885L132.914 15.2068L136.288 0.480225H121.119V17.7813Z" fill="#CF5C36"/>
<path opacity="0.37" d="M121.119 5.00879H131.338L130.069 15.4565L135.232 37.6498L127.972 42.8131L121.119 17.7814V5.00879Z" fill="white"/>
<path d="M134.84 23.3082C134.84 23.3082 137.693 13.8803 132.601 11.7836C127.509 9.68696 129.249 23.2297 134.84 23.3082Z" fill="#334155"/>
<path d="M99.8384 125.111H106.428V133.626C106.429 134.28 106.637 134.918 107.021 135.448C107.405 135.978 107.946 136.373 108.567 136.578L111.541 137.57C112.184 137.784 112.743 138.194 113.14 138.743C113.537 139.292 113.751 139.952 113.752 140.629V142.227H102.591C102.134 142.226 101.694 142.052 101.361 141.739C101.027 141.427 100.825 141 100.794 140.544L99.8384 125.111Z" fill="#334155"/>
<path d="M12.0562 151.441L39.263 129.333L65.7068 156.19L85.7464 135.038L101.265 141.635L124.97 125.111L139.026 142.227L151.592 166.887H0.881104L12.0562 151.441Z" fill="#94A3B8"/>
<path opacity="0.33" d="M39.263 129.333L24.893 154.764L21.7979 166.887H0.881104L12.0562 151.441L39.263 129.333Z" fill="#F1F5F9"/>
<path opacity="0.33" d="M65.7068 156.19L74.4572 163.322L85.7464 135.038L65.7068 156.19Z" fill="#F1F5F9"/>
<path opacity="0.33" d="M101.265 141.635L109.637 151.676L123.544 134.439L124.97 125.111L101.265 141.635Z" fill="#F1F5F9"/>
<path d="M60.4082 145.022L67.7965 145.999L65.7069 156.19L60.4082 150.813V145.022Z" fill="#334155"/>
<path d="M59.757 40.7822L52.908 41.8033L54.3014 51.1493L61.1504 50.1282L59.757 40.7822Z" fill="#CF5C36"/>
<path opacity="0.37" d="M59.757 40.7822L52.908 41.8033L54.3014 51.1493L61.1504 50.1282L59.757 40.7822Z" fill="white"/>
<path d="M95.8571 36.8144L90.125 38.4797L92.7613 47.5538L98.4933 45.8885L95.8571 36.8144Z" fill="#CF5C36"/>
<path opacity="0.37" d="M95.8571 36.8144L90.125 38.4797L92.7613 47.5538L98.4933 45.8885L95.8571 36.8144Z" fill="white"/>
</svg>
