<svg width="52" height="42" viewBox="0 0 52 42" fill="none" xmlns="http://www.w3.org/2000/svg">
<path d="M26.5928 1L28.5286 4.38766L30.4644 1" stroke="#64748B" stroke-width="1.44184" stroke-linecap="round"/>
<path d="M23.2053 15.2281L28.4521 4.55703L38.6917 24.883H30.9062" stroke="#64748B" stroke-width="1.44184" stroke-linecap="round" stroke-linejoin="round"/>
<path d="M18.2911 25.5497H9.65479L16.6336 12.3002L24.5721 27.7867L29.9807 16.9462" stroke="#64748B" stroke-width="1.44184" stroke-linecap="round" stroke-linejoin="round"/>
<path d="M0.256 34.152H1.616L2.776 37.56L3.672 35.312L3.208 34.152H4.36L5.68 37.424L6.68 34.152H7.928L5.656 40.256L4.256 36.768L2.624 40.272L0.256 34.152ZM8.44663 40L11.1026 33.88H11.1666L13.8226 40H12.4786L12.0226 38.848H10.0706L9.59063 40H8.44663ZM10.4786 37.872H11.6386L11.0706 36.44L10.4786 37.872ZM20.9129 40.24L16.7929 36.52L16.8169 40H15.6409V33.88H15.6889L19.8009 37.656L19.7769 34.112H20.9449V40.24H20.9129ZM23.4212 40V34.112H25.1812C25.7732 34.112 26.2772 34.2 26.6932 34.376C27.1092 34.552 27.4426 34.7867 27.6932 35.08C27.9492 35.3733 28.1359 35.7013 28.2532 36.064C28.3706 36.4267 28.4292 36.792 28.4292 37.16C28.4292 37.5973 28.3492 37.992 28.1892 38.344C28.0346 38.6907 27.8212 38.9893 27.5492 39.24C27.2772 39.4853 26.9626 39.6747 26.6052 39.808C26.2479 39.936 25.8692 40 25.4692 40H23.4212ZM24.5812 38.88H25.2692C25.8559 38.88 26.3279 38.728 26.6852 38.424C27.0479 38.12 27.2292 37.672 27.2292 37.08C27.2292 36.696 27.1652 36.384 27.0372 36.144C26.9146 35.8987 26.7599 35.7093 26.5732 35.576C26.3919 35.4427 26.2052 35.352 26.0132 35.304C25.8212 35.2507 25.6586 35.224 25.5252 35.224H24.5812V38.88ZM30.5531 34.112H34.5691V35.232H31.7131V36.488H34.2411V37.608H31.7131V38.88H34.6811V40H30.5531V34.112ZM38.6252 34.112C39.3666 34.112 39.9346 34.2933 40.3292 34.656C40.7292 35.0133 40.9292 35.4933 40.9292 36.096C40.9292 36.432 40.8572 36.7627 40.7132 37.088C40.5746 37.4133 40.3372 37.672 40.0012 37.864L41.3692 40H40.0172L38.7772 38.128H38.0012V40H36.8412V34.112H38.6252ZM38.8252 37.008C39.0599 37.008 39.2412 36.96 39.3692 36.864C39.5026 36.7627 39.5959 36.6453 39.6492 36.512C39.7026 36.3733 39.7292 36.248 39.7292 36.136C39.7292 36.072 39.7186 35.992 39.6972 35.896C39.6812 35.7947 39.6439 35.6933 39.5852 35.592C39.5266 35.4907 39.4359 35.4053 39.3132 35.336C39.1959 35.2667 39.0359 35.232 38.8332 35.232H38.0012V37.008H38.8252ZM48.5576 40.24L44.4376 36.52L44.4616 40H43.2856V33.88H43.3336L47.4456 37.656L47.4216 34.112H48.5896V40.24H48.5576Z" fill="#64748B"/>
</svg>
