<svg width="1440" height="882" viewBox="0 0 1440 882" fill="none" xmlns="http://www.w3.org/2000/svg">
<path fill-rule="evenodd" clip-rule="evenodd" d="M923.059 615.626C933.27 613.722 941 604.764 941 594C941 581.85 931.15 572 919 572C906.85 572 897 581.85 897 594C897 604.764 904.73 613.722 914.941 615.626L919 625L923.059 615.626Z" fill="white" fill-opacity="0.75"/>
<path d="M930.25 601.5V591.5C930.25 590.837 929.987 590.201 929.518 589.732C929.049 589.263 928.413 589 927.75 589H917.75V596.5M907.75 587.75V601.5V587.75ZM907.75 596.5H930.25H907.75Z" stroke="#334155" stroke-width="2" stroke-linecap="round" stroke-linejoin="round"/>
<path d="M912.75 592.75C913.44 592.75 914 592.19 914 591.5C914 590.81 913.44 590.25 912.75 590.25C912.06 590.25 911.5 590.81 911.5 591.5C911.5 592.19 912.06 592.75 912.75 592.75Z" stroke="#334155" stroke-width="2" stroke-linecap="round" stroke-linejoin="round"/>
<g filter="url(#filter0_dd)">
<path fill-rule="evenodd" clip-rule="evenodd" d="M1175.15 490.857C1182.97 489.806 1189 483.107 1189 475C1189 466.163 1181.84 459 1173 459C1164.16 459 1157 466.163 1157 475C1157 482.734 1162.49 489.187 1169.78 490.676L1172.5 498L1175.15 490.857Z" fill="white" fill-opacity="0.75"/>
</g>
<path d="M894.841 637.603C784.975 633.246 675.651 681.172 608 681.172" stroke="white" stroke-opacity="0.75" stroke-width="3" stroke-linecap="round" stroke-linejoin="round" stroke-dasharray="10.8 10.8"/>
<path d="M1158.95 595.668C1047.61 636.909 1049.07 646.545 906.747 639.128" stroke="white" stroke-opacity="0.75" stroke-width="3" stroke-linecap="round" stroke-linejoin="round" stroke-dasharray="10.8 10.8"/>
<path d="M1166.93 589C1175.61 583.143 1183.07 576.57 1188.57 567.478C1192.29 561.324 1193.57 554.356 1194.59 547.329C1195.16 543.357 1194.8 538.956 1194.69 534.966C1194.65 533.456 1193.35 529.022 1191.96 528.555" stroke="white" stroke-opacity="0.75" stroke-width="3" stroke-linecap="round" stroke-linejoin="round" stroke-dasharray="10.8 10.8"/>
<line x1="0.75" y1="-0.75" x2="17.25" y2="-0.75" transform="matrix(0.559193 -0.829038 0.805028 0.593236 1165 481.923)" stroke="#334155" stroke-width="1.5" stroke-linecap="round"/>
<line x1="0.75" y1="-0.75" x2="17.25" y2="-0.75" transform="matrix(0.559193 0.829038 -0.805028 0.593236 1171 467)" stroke="#334155" stroke-width="1.5" stroke-linecap="round"/>
<path d="M1164 481H1182" stroke="#334155" stroke-width="1.5" stroke-linecap="round"/>
<path d="M1170 481L1172.88 475L1176 481" stroke="#334155" stroke-width="1.5" stroke-linejoin="round"/>
<defs>
<filter id="filter0_dd" x="1142" y="454" width="62" height="69" filterUnits="userSpaceOnUse" color-interpolation-filters="sRGB">
<feFlood flood-opacity="0" result="BackgroundImageFix"/>
<feColorMatrix in="SourceAlpha" type="matrix" values="0 0 0 0 0 0 0 0 0 0 0 0 0 0 0 0 0 0 127 0"/>
<feOffset dy="4"/>
<feGaussianBlur stdDeviation="3"/>
<feColorMatrix type="matrix" values="0 0 0 0 0 0 0 0 0 0 0 0 0 0 0 0 0 0 0.05 0"/>
<feBlend mode="normal" in2="BackgroundImageFix" result="effect1_dropShadow"/>
<feColorMatrix in="SourceAlpha" type="matrix" values="0 0 0 0 0 0 0 0 0 0 0 0 0 0 0 0 0 0 127 0"/>
<feOffset dy="10"/>
<feGaussianBlur stdDeviation="7.5"/>
<feColorMatrix type="matrix" values="0 0 0 0 0 0 0 0 0 0 0 0 0 0 0 0 0 0 0.1 0"/>
<feBlend mode="normal" in2="effect1_dropShadow" result="effect2_dropShadow"/>
<feBlend mode="normal" in="SourceGraphic" in2="effect2_dropShadow" result="shape"/>
</filter>
</defs>
</svg>
