<svg xmlns="http://www.w3.org/2000/svg" width="81.07046520273072" height="309.510422335509" baseProfile="full" version="1.1">
  <defs>
    <style type="text/css">
      .polygon,
      line,
      path,
      polygon,
      polyline,
      rect {
        fill: none;
        stroke: #334155;
        stroke-width: 1px;
        stroke-linejoin: round;
      }
    </style>
  </defs>
  <g fill_rule="evenodd" transform="scale(1,-1) translate(-1.8929501263349724,-0.11149001615236148)">
    <g class="name desc">
      <g fill_rule="evenodd"><polyline
        points="32.28,0.02 32.00,-0.56 31.85,-1.26 31.80,-1.85 31.96,-2.06 31.82,-2.45 31.54,-2.79 31.37,-3.30 31.08,-3.75 30.80,-3.89 30.77,-4.05 31.01,-4.19 31.13,-5.08 31.32,-5.20 32.41,-5.15 32.49,-5.69 32.90,-6.70 33.13,-6.97 33.26,-7.41 33.45,-7.03 33.66,-7.37 33.89,-7.56 34.06,-7.92 34.38,-8.68 34.56,-8.56 34.80,-8.85 34.84,-9.08 35.17,-9.51 35.29,-10.17 35.40,-10.42 35.40,-10.65 35.49,-10.96 35.50,-11.40 35.65,-11.37 35.74,-10.98 35.84,-11.06 35.79,-11.38 35.96,-11.09 35.87,-11.47 36.03,-11.18 36.05,-11.50 36.20,-11.17 36.33,-11.28 36.15,-11.50 36.40,-11.37 36.42,-11.46 36.13,-11.67 36.13,-11.86 35.96,-11.89 36.04,-12.05 35.95,-12.21 36.00,-12.62 35.84,-12.63 35.32,-12.14 35.12,-12.37 35.48,-12.82 35.50,-12.99 35.34,-12.92 35.25,-13.06 35.27,-14.11 35.47,-14.69 35.54,-15.00 35.75,-15.20 35.93,-15.20 36.10,-15.42 36.11,-15.57 36.04,-15.70 36.02,-15.84 36.05,-16.00 35.87,-16.26 34.81,-16.25 34.24,-16.04 33.61,-16.00 33.49,-15.93 33.40,-16.04 33.22,-15.99 33.18,-16.16 33.01,-16.11 32.96,-16.32 32.76,-16.30 32.71,-16.47 32.58,-16.47 32.57,-16.64 32.47,-16.81 32.17,-16.76 32.09,-16.90 31.70,-16.85 31.43,-17.09 31.54,-17.39 31.94,-17.59 32.34,-18.08 32.31,-18.19 32.05,-17.96 31.75,-17.96 31.55,-17.90 30.65,-17.89 30.34,-17.99 29.81,-17.96 29.65,-18.00 29.31,-17.94 29.10,-17.98 28.96,-18.18 28.76,-18.25 28.39,-18.48 28.22,-18.65 28.11,-18.85 27.68,-19.03 27.39,-19.12 27.37,-19.36 27.35,-19.73 26.99,-19.99 26.59,-20.04 26.23,-20.31 25.91,-20.31 25.19,-20.68 25.02,-20.85 24.95,-21.00 24.73,-21.14 24.41,-21.44 24.19,-21.52 23.75,-21.58 23.58,-21.72 23.32,-21.80 23.24,-22.01 23.14,-22.06 22.91,-22.10 22.87,-22.29 22.22,-22.65 22.18,-23.00 22.29,-23.30 22.29,-23.43 22.19,-23.47 22.25,-23.65 22.27,-23.93 22.39,-24.08 22.62,-24.29 22.89,-24.65 22.87,-24.76 22.72,-24.81 22.70,-24.94 22.62,-25.11 22.79,-25.32 22.79,-25.57 22.89,-25.72 23.22,-25.91 23.31,-26.04 23.49,-26.50 23.68,-26.74 23.73,-26.84 23.91,-26.79 23.92,-26.89 23.83,-27.00 23.87,-27.09 23.95,-27.11 23.98,-27.34 23.77,-27.48 23.53,-27.60 23.41,-27.60 23.33,-27.57 23.01,-28.00 22.95,-28.20 22.77,-28.29 22.87,-28.47 22.89,-28.67 22.96,-28.83 22.99,-29.31 22.96,-29.40 22.81,-29.39 22.71,-29.37 22.66,-29.44 22.73,-29.59 22.70,-29.74 22.56,-29.95 22.58,-30.21 22.47,-30.32 22.48,-30.46 22.39,-30.58 22.24,-30.65 22.09,-30.65 21.78,-30.81 21.49,-31.05 21.46,-31.27 21.18,-31.47 21.34,-31.84 21.38,-32.03 21.23,-32.11 21.14,-32.19 21.31,-32.23 21.43,-32.35 21.84,-32.39 21.96,-32.73 22.36,-32.73 22.58,-32.78 22.75,-32.95 22.88,-33.12 22.85,-33.34 22.80,-33.52 22.92,-33.70 22.84,-33.87 22.82,-34.02 22.88,-34.32 22.97,-34.44 22.96,-34.60 22.75,-34.62 22.22,-35.13 22.04,-35.10 21.99,-34.87 21.62,-34.93 21.15,-34.94 21.05,-34.87 21.02,-34.58 20.87,-34.30 20.70,-34.24 20.38,-34.00 20.24,-33.76 20.00,-33.59 19.75,-33.30 19.61,-33.27 19.30,-33.47 19.31,-33.35 19.36,-33.23 19.18,-33.29 19.03,-33.39 18.82,-33.52 18.61,-33.40 18.53,-33.53 18.30,-33.58 17.98,-33.44 17.84,-33.42 17.78,-33.33 17.70,-33.46 17.60,-33.25 17.41,-33.34 17.30,-33.35 17.11,-33.21 17.09,-33.38 16.96,-33.26 16.85,-33.13 16.84,-33.34 17.08,-33.62 17.09,-33.74 16.94,-33.92 16.83,-34.07 16.83,-33.84 16.74,-33.77 16.67,-34.05 16.59,-33.80 16.48,-34.02 16.45,-33.91 16.45,-33.71 16.31,-33.90 16.37,-34.17 16.34,-34.30 16.19,-34.15 16.11,-33.91 16.08,-33.68 15.97,-33.54 15.88,-33.86 15.88,-34.22 15.79,-34.37 15.66,-34.48 15.56,-34.52 15.16,-35.09 15.18,-35.27 15.18,-35.44 15.29,-35.74 15.25,-36.14 15.29,-36.46 15.20,-36.70 15.25,-37.29 15.13,-37.21 15.16,-37.46 15.03,-37.33 15.07,-37.58 14.89,-37.58 14.97,-37.71 14.92,-37.95 15.05,-38.08 15.15,-38.43 15.23,-38.63 15.45,-38.80 15.32,-38.91 15.27,-39.11 15.25,-39.44 15.08,-39.73 14.86,-39.90 14.65,-40.02 14.62,-40.19 14.44,-40.27 14.11,-40.94 13.81,-41.31 13.49,-41.52 13.48,-41.64 13.25,-42.01 12.87,-42.22 12.71,-42.40 12.43,-42.48 11.89,-42.93 11.56,-43.07 11.00,-43.50 10.75,-43.78 10.24,-44.22 9.98,-44.31 9.36,-44.26 9.01,-44.40 8.85,-44.32 8.86,-44.20 8.95,-44.03 8.84,-44.01 8.66,-44.08 8.47,-44.08 8.26,-44.18 7.62,-43.95 7.16,-44.04 6.82,-43.92 6.72,-43.84 6.73,-43.70 6.84,-43.54 6.83,-43.44 6.64,-43.41 6.67,-43.31 6.87,-43.32 6.91,-43.24 6.78,-43.14 6.60,-43.15 6.42,-43.33 5.88,-43.13 5.53,-43.17 5.15,-43.13 5.00,-43.19 5.00,-43.31 4.84,-43.52 4.66,-44.12 4.84,-44.44 4.93,-44.97 5.00,-45.18 5.22,-45.33 5.13,-45.60 5.11,-46.13 4.90,-46.55 5.00,-47.08 4.98,-47.38 5.18,-47.68 5.24,-48.07 5.44,-48.11 5.69,-48.01 5.82,-47.86 5.91,-47.86 5.86,-48.12 5.68,-48.30 5.49,-48.39 5.50,-48.52 5.72,-48.52 5.80,-48.59 5.92,-48.59 5.99,-48.67 6.25,-48.59 6.44,-48.66 6.35,-48.76 6.11,-48.82 5.97,-48.90 5.80,-49.13 5.70,-49.28 5.74,-49.46 5.87,-49.53 6.07,-49.85 6.21,-50.25 6.61,-50.79 6.95,-50.73 6.98,-50.85 7.23,-50.99 7.42,-51.21 7.57,-51.45 7.60,-51.69 7.74,-52.01 7.73,-52.23 7.75,-52.43 7.77,-52.55 7.78,-52.85 7.90,-52.99 8.22,-53.05 8.32,-53.13 8.44,-53.14 8.52,-53.20 8.44,-53.27 8.27,-53.27 8.39,-53.46 8.48,-53.61 8.49,-54.05 8.61,-54.05 8.54,-54.24 8.47,-54.49 8.33,-54.91 8.18,-55.00 8.11,-55.22 8.13,-55.50 8.25,-55.66 8.42,-55.75 8.51,-56.04 8.62,-56.24 8.59,-56.52 8.49,-56.70 8.29,-57.18 8.11,-57.36 8.08,-57.65 8.00,-57.79 7.88,-57.87 7.81,-58.12 7.74,-58.26 7.71,-58.55 7.59,-58.68 7.42,-58.80 7.27,-59.02 7.24,-59.17 7.02,-59.43 6.84,-59.63 6.77,-59.61 6.72,-59.77 6.63,-59.77 6.46,-60.11 6.28,-60.56 5.95,-60.94 5.79,-61.13 5.68,-61.36 5.58,-61.46 5.48,-61.58 5.30,-61.56 5.10,-61.72 4.55,-61.98 4.34,-62.17 4.02,-62.32 3.84,-62.36 3.74,-62.45 3.54,-62.52 3.41,-62.62 3.34,-62.80 3.20,-62.90 2.93,-63.06 2.70,-63.60 2.63,-64.02 2.65,-64.27 2.50,-64.81 2.49,-65.05 2.35,-65.74 2.35,-66.04 2.28,-66.56 2.25,-66.93 2.21,-67.23 2.30,-67.51 2.36,-67.76 2.26,-67.93 1.90,-68.17 1.92,-68.44 2.14,-68.95 2.12,-69.44 2.19,-69.59 2.48,-69.94 2.61,-70.18 2.74,-70.42 2.68,-70.54 2.56,-70.58 2.49,-70.94 2.50,-71.42 2.65,-72.06 2.75,-72.65 2.76,-72.92 2.94,-73.66 2.96,-74.42 2.85,-74.73 2.72,-74.91 2.74,-75.47 2.94,-75.72 2.90,-76.04 2.95,-76.44 2.83,-76.88 2.81,-77.18 3.00,-77.69 2.93,-77.86 2.72,-78.13 2.63,-78.33 2.52,-78.50 2.62,-78.85 2.53,-78.97 2.38,-79.10 2.26,-79.36 2.30,-79.64 2.11,-79.99 2.06,-80.23 2.15,-80.62 2.25,-80.79 2.23,-81.14 2.37,-81.45 2.48,-81.90 2.42,-82.14 2.25,-82.44 2.27,-82.73 2.36,-82.91 2.34,-83.01 2.48,-83.13 2.26,-83.59 2.63,-84.36 3.20,-85.97 3.37,-86.76 3.34,-87.38 3.84,-88.02 4.16,-88.31 4.22,-88.57 4.45,-88.65 4.54,-88.85 4.73,-88.85 4.82,-88.96 4.92,-89.38 4.87,-89.75 4.96,-90.20 4.78,-90.54 4.72,-90.73 4.43,-90.90 4.24,-91.07 4.12,-91.24 4.05,-91.74 3.97,-92.08 3.82,-92.58 3.70,-93.10 3.69,-93.32 3.87,-93.58 3.52,-93.62 3.64,-93.91 3.41,-93.94 3.61,-94.17 3.68,-94.32 3.61,-94.58 3.73,-94.30 3.60,-94.14 3.78,-94.05 3.92,-94.03 4.12,-93.82 4.37,-93.80 4.61,-93.76 4.99,-93.52 5.06,-93.60 5.41,-93.52 6.01,-93.51 6.28,-93.36 6.49,-93.30 6.89,-93.16 7.23,-93.06 7.43,-93.09 7.63,-93.20 7.74,-93.38 7.71,-93.60 7.55,-93.92 7.31,-94.18 7.08,-94.30 6.95,-94.45 6.90,-94.58 6.92,-94.85 6.86,-94.93 6.66,-94.96 6.61,-95.56 6.70,-96.42 6.48,-96.47 6.22,-96.48 6.10,-96.64 6.07,-96.92 5.94,-97.08 5.72,-97.20 5.47,-97.27 5.20,-97.46 4.90,-97.69 4.48,-98.22 3.96,-98.43 3.73,-98.68 3.02,-99.90 3.49,-99.92 3.71,-100.08 4.05,-100.34 4.32,-100.60 4.70,-100.93 5.00,-101.14 5.81,-101.60 6.03,-101.61 6.15,-101.60 6.11,-101.83 6.26,-102.02 6.22,-102.37 6.27,-102.44 6.50,-102.46 6.86,-102.71 7.20,-103.11 7.31,-103.61 7.41,-103.81 7.64,-103.96 7.90,-104.06 8.28,-104.35 8.42,-104.72 8.65,-104.95 8.95,-105.26 9.36,-105.59 9.43,-105.74 9.67,-105.92 9.83,-106.25 9.88,-106.41 9.79,-106.45 9.80,-106.53 10.09,-106.54 10.13,-106.41 10.37,-106.68 10.38,-106.93 10.72,-107.39 10.85,-107.39 11.15,-107.61 11.41,-108.07 11.46,-108.29 11.63,-108.29 11.83,-108.39 12.32,-108.66 12.50,-108.87 12.60,-109.02 12.89,-109.13 13.08,-109.24 13.27,-109.49 13.49,-109.65 13.63,-109.95 13.80,-110.21 14.01,-110.34 14.07,-110.45 14.28,-110.55 14.45,-110.63 14.68,-110.64 14.90,-110.64 15.13,-110.61 15.25,-110.56 15.36,-110.50 15.52,-110.49 15.61,-110.12 15.81,-109.98 15.74,-109.90 15.79,-109.67 15.79,-109.49 15.88,-109.43 16.02,-109.50 16.20,-109.49 16.46,-109.40 16.57,-109.32 16.59,-109.20 16.49,-109.13 16.40,-109.04 16.41,-108.95 16.53,-108.83 16.74,-108.69 16.86,-108.48 16.97,-108.37 17.09,-108.27 17.09,-108.14 17.07,-107.83 17.03,-107.47 17.17,-107.18 17.22,-107.02 17.37,-106.83 17.51,-106.76 17.87,-106.75 18.05,-106.62 18.09,-106.48 18.14,-106.28 18.29,-106.18 18.52,-106.21 18.74,-106.28 19.02,-106.28 19.33,-106.22 19.66,-106.11 19.94,-106.03 20.20,-105.96 20.47,-105.96 20.67,-105.83 20.81,-105.67 20.95,-105.56 21.18,-105.60 21.65,-105.49 21.90,-105.41 22.39,-105.41 22.82,-105.40 22.95,-105.33 23.05,-105.37 23.38,-105.52 23.73,-105.59 24.36,-105.63 24.60,-105.72 24.91,-105.83 25.15,-106.03 25.36,-106.09 25.92,-106.24 26.07,-106.34 26.24,-106.27 26.43,-106.40 26.54,-106.44 26.91,-106.44 27.13,-106.48 27.53,-106.47 27.73,-106.39 28.09,-106.79 28.53,-107.11 28.78,-107.21 29.15,-107.35 29.24,-107.20 29.47,-107.02 29.61,-106.99 29.68,-106.93 30.05,-107.05 29.97,-107.15 29.95,-107.30 30.28,-107.41 30.31,-107.52 30.46,-107.53 30.72,-107.33 30.92,-107.33 31.11,-107.41 31.32,-107.59 31.41,-107.78 31.55,-107.94 31.74,-107.97 31.96,-108.01 32.23,-107.93 32.48,-107.89 32.77,-107.94 33.14,-107.89 33.39,-107.89 33.51,-107.85 33.80,-108.03 33.94,-108.11 34.21,-108.20 34.33,-108.34 34.45,-108.38 34.65,-108.42 34.82,-108.37 34.99,-108.40 35.16,-108.58 35.32,-108.98 35.47,-109.44 35.67,-109.36 35.74,-109.27 35.78,-109.48 35.84,-109.57 35.92,-109.52 35.97,-109.59 36.41,-109.56 36.63,-109.96 36.74,-110.11 36.71,-110.32 36.59,-110.47 36.60,-110.62 36.75,-110.92 36.87,-111.06 37.00,-111.05 37.14,-111.14 37.23,-111.08 37.41,-110.85 37.59,-110.69 37.78,-110.51 37.85,-110.59 37.94,-110.52 38.08,-110.62 38.18,-110.58 38.13,-110.49 38.22,-110.45 38.21,-110.35 38.27,-110.24 38.27,-110.09 38.56,-110.44 38.69,-110.65 38.73,-110.83 38.80,-110.93 38.90,-110.94 38.98,-111.17 39.03,-111.48 39.15,-111.72 39.31,-111.91 39.36,-112.28 39.42,-112.42 39.44,-112.63 39.57,-112.87 39.63,-113.13 39.77,-113.44 39.87,-113.54 39.99,-113.86 40.10,-114.18 40.04,-114.42 40.10,-114.58 40.04,-114.70 40.08,-114.84 40.04,-115.04 40.05,-115.29 40.15,-115.40 40.13,-115.55 40.06,-115.83 40.17,-116.06 40.33,-116.26 40.35,-116.40 40.53,-116.56 40.57,-116.83 40.61,-117.02 40.50,-117.27 40.56,-117.50 40.52,-117.82 40.33,-117.91 40.34,-118.14 40.28,-118.39 40.29,-118.71 40.33,-119.25 40.32,-119.61 40.30,-119.94 40.06,-120.23 40.09,-120.42 40.22,-120.49 40.32,-120.88 40.47,-121.17 40.40,-121.51 40.29,-121.72 40.28,-121.98 40.21,-122.18 40.16,-122.39 40.21,-122.55 40.37,-122.72 40.40,-123.29 40.36,-123.50 40.18,-123.87 40.11,-124.08 40.16,-124.32 40.25,-124.62 40.26,-124.86 40.22,-125.14 40.26,-125.36 40.43,-125.60 40.43,-125.83 40.61,-126.10 40.76,-126.39 40.85,-126.61 41.10,-126.91 41.26,-127.20 41.45,-127.73 41.61,-127.83 41.78,-127.95 42.09,-128.13 42.19,-128.34 42.33,-128.76 42.34,-129.00 42.54,-129.52 42.63,-129.81 42.76,-130.03 42.70,-130.24 42.69,-130.50 42.70,-130.79 42.96,-131.12 43.16,-131.45 43.37,-131.56 43.21,-131.66 43.47,-131.85 43.57,-131.83 43.73,-131.94 44.02,-132.08 44.17,-132.07 44.45,-132.24 44.65,-132.32 44.94,-132.52 45.15,-132.61 45.48,-132.92 45.64,-133.18 45.98,-133.80 46.00,-134.10 46.07,-134.19 46.17,-134.27 46.37,-134.65 46.49,-134.81 46.74,-134.95 46.96,-135.10 47.19,-135.34 47.24,-135.58 47.36,-135.69 47.44,-135.84 47.44,-136.07 47.61,-136.26 47.74,-136.45 47.62,-136.67 47.37,-136.99 47.72,-137.01 47.96,-137.20 48.09,-137.20 48.21,-137.45 48.39,-137.49 48.59,-137.68 48.68,-137.96 48.85,-138.07 49.06,-138.05 49.22,-138.13 49.36,-138.20 49.66,-138.16 49.90,-138.34 49.99,-138.35 50.12,-138.42 50.15,-138.60 50.06,-138.71 50.09,-138.95 49.89,-139.08 49.70,-139.37 49.47,-139.67 49.28,-139.81 49.13,-139.92 48.95,-140.05 48.81,-140.24 48.55,-140.64 48.44,-140.90 48.44,-141.10 48.37,-141.41 48.36,-141.59 48.25,-141.80 48.28,-142.01 48.14,-142.10 48.03,-142.16 47.95,-142.29 47.83,-142.62 47.78,-142.92 47.69,-143.11 47.47,-143.30 47.22,-143.58 46.95,-143.98 46.80,-144.15 46.73,-144.37 46.77,-144.55 46.78,-144.70 46.94,-144.86 47.17,-144.91 47.45,-145.03 47.57,-145.05 47.82,-145.10 47.82,-145.23 47.70,-145.28 47.83,-145.37 47.81,-145.56 47.69,-145.65 47.86,-145.61 47.94,-145.69 47.94,-145.81 47.78,-145.86 47.28,-146.09 47.15,-146.18 46.92,-146.47 46.80,-146.76 46.60,-146.91 46.46,-147.00 46.51,-147.21 46.66,-147.54 46.77,-147.79 47.13,-148.40 47.37,-148.72 47.41,-149.06 47.30,-149.31 47.01,-149.45 46.84,-149.94 46.62,-150.38 46.21,-150.96 46.03,-151.16 45.93,-151.24 45.69,-151.22 45.52,-151.13 44.76,-151.22 44.68,-151.31 44.66,-151.51 44.48,-151.54 44.28,-151.77 44.23,-152.12 43.93,-152.42 43.73,-152.58 43.63,-152.75 43.25,-153.10 42.99,-153.43 42.74,-153.66 42.39,-153.84 42.10,-154.11 41.96,-154.25 41.57,-154.52 41.22,-154.74 40.96,-154.92 40.78,-155.08 40.77,-154.91 40.66,-154.74 40.42,-154.70 40.32,-154.61 40.29,-154.33 40.41,-154.24 40.18,-154.11 40.42,-154.24 40.29,-154.33 39.99,-154.45 39.61,-154.65 39.19,-154.78 38.93,-155.05 38.62,-155.10 37.98,-155.29 37.54,-155.36 37.39,-155.56 37.01,-155.60 36.72,-155.60 36.41,-155.55 36.25,-155.50 36.07,-155.50 35.82,-155.30 35.59,-155.34 35.46,-155.33 35.37,-155.27 35.11,-155.27 34.91,-155.13 34.72,-154.93 34.59,-154.83 34.42,-154.86 34.27,-154.78 34.10,-154.62 33.72,-154.51 33.27,-154.42 33.09,-154.45 32.89,-154.61 32.76,-154.60 32.34,-154.51 32.10,-154.48 31.78,-154.36 31.43,-154.25 31.21,-154.28 31.05,-154.33 30.88,-154.43 30.53,-154.45 30.32,-154.47 29.82,-154.49 29.65,-154.62 29.65,-154.85 29.62,-155.02 28.95,-155.12 28.94,-155.32 28.65,-155.40 28.38,-155.61 28.06,-155.60 27.88,-155.50 27.73,-155.45 27.56,-155.66 27.42,-155.81 27.36,-156.19 27.43,-156.46 27.42,-156.71 27.37,-156.93 27.38,-157.22 27.69,-157.69 28.12,-158.09 28.49,-158.31 28.66,-158.84 28.93,-159.20 29.00,-159.52 29.10,-159.93 28.76,-159.90 28.76,-160.24 28.64,-160.16 28.74,-160.48 28.73,-160.70 28.65,-160.83 28.68,-161.13 28.77,-161.38 28.77,-161.55 28.96,-161.83 28.86,-161.94 28.86,-162.42 28.84,-162.78 28.80,-162.97 28.72,-162.96 28.55,-162.70 28.37,-162.65 28.28,-162.45 28.31,-162.25 28.22,-162.20 28.00,-162.52 27.82,-162.35 27.74,-162.57 27.72,-162.71 27.70,-162.95 27.75,-163.07 27.71,-163.14 27.53,-163.02 27.39,-162.82 27.32,-162.83 27.34,-163.06 27.61,-163.52 27.70,-163.66 27.83,-163.71 27.93,-163.90 28.03,-164.06 27.90,-163.98 27.89,-164.12 28.00,-164.34 27.97,-164.49 27.87,-164.41 27.87,-164.62 27.96,-164.75 27.91,-164.91 28.03,-165.06 28.00,-165.13 27.93,-165.07 27.83,-165.22 27.67,-165.35 27.66,-165.45 27.50,-165.68 27.37,-165.78 27.37,-165.90 27.24,-165.72 27.23,-165.87 27.18,-165.86 27.07,-165.93 26.82,-166.06 26.55,-166.07 26.20,-166.08 25.96,-166.14 25.82,-166.26 25.52,-166.03 24.81,-166.15 24.64,-166.17 24.54,-166.11 24.33,-166.19 24.22,-166.20 24.04,-166.00 23.84,-166.00 23.81,-165.93 23.67,-165.95 23.57,-166.02 23.36,-166.02 23.27,-166.05 23.32,-166.19 23.24,-166.32 22.99,-166.56 22.98,-166.70 23.03,-166.80 23.12,-167.05 22.98,-167.26 22.98,-167.44 22.89,-167.64 22.76,-167.83 22.69,-168.08 22.69,-168.27 22.59,-168.41 22.41,-168.63 22.29,-168.87 22.17,-169.06 21.99,-169.26 21.87,-169.32 21.72,-169.44 21.76,-169.52 21.66,-169.61 21.53,-169.57 21.41,-169.74 21.29,-169.71 21.22,-169.85 21.07,-170.16 20.86,-170.39 20.65,-170.49 20.53,-170.73 20.35,-170.93 19.98,-171.18 19.85,-171.45 19.85,-171.65 19.78,-172.07 19.58,-172.24 19.28,-172.24 19.03,-172.33 18.72,-172.46 18.20,-172.87 17.94,-173.06 17.81,-173.07 17.70,-173.18 17.44,-173.32 17.15,-173.32 17.03,-173.49 16.85,-173.40 16.55,-173.42 16.44,-173.52 16.30,-173.46 15.86,-173.42 15.62,-173.54 15.49,-173.53 15.31,-173.64 15.17,-173.85 15.18,-174.02 15.13,-174.21 15.00,-174.40 14.86,-174.55 14.79,-174.70 14.67,-174.84 14.29,-175.12 14.09,-175.30 13.94,-175.48 13.74,-175.68 13.63,-175.76 13.40,-175.73 13.05,-175.59 12.79,-176.02 12.59,-176.10 12.22,-176.43 12.04,-176.59 11.77,-176.61 11.25,-176.72 10.97,-176.86 10.75,-176.91 10.39,-177.07 10.23,-177.08 9.76,-177.18 9.47,-177.38 9.23,-177.64 9.12,-177.93 8.84,-178.31 8.64,-178.56 8.26,-178.70 8.06,-178.87 7.93,-179.19 7.82,-179.50 7.77,-179.72 7.84,-180.01 7.81,-180.21 7.51,-180.70 7.37,-181.02 7.24,-181.39 7.10,-181.68 6.96,-181.97 6.93,-182.29 6.74,-182.41 6.62,-182.60 6.52,-182.93 6.24,-183.19 6.08,-183.35 6.04,-183.58 6.13,-183.94 6.08,-184.15 6.12,-184.28 6.23,-184.45 6.24,-184.64 6.23,-184.86 6.43,-185.46 6.54,-185.69 6.61,-185.99 6.64,-186.29 6.57,-186.64 6.57,-187.03 6.66,-187.48 6.61,-187.76 6.63,-187.98 6.53,-188.13 6.65,-188.41 6.82,-188.59 7.10,-188.70 7.26,-188.80 7.39,-189.09 7.44,-189.38 7.60,-189.56 7.79,-189.23 7.88,-189.21 7.94,-189.33 8.27,-189.37 8.59,-189.48 8.92,-189.48 9.25,-189.48 9.42,-189.39 9.55,-189.42 9.67,-189.67 9.89,-189.81 10.07,-189.84 10.28,-189.86 10.37,-190.06 10.35,-190.26 10.47,-190.42 10.60,-190.51 10.68,-190.63 10.91,-190.58 11.08,-190.74 11.28,-190.72 11.45,-190.77 11.55,-190.99 11.71,-191.14 12.03,-191.37 11.88,-191.27 11.90,-191.04 12.00,-191.00 12.03,-190.87 12.04,-190.64 12.11,-190.47 12.24,-190.33 12.29,-190.22 12.32,-189.90 12.38,-189.73 12.67,-189.73 12.91,-189.80 13.30,-189.80 13.39,-189.85 13.51,-189.76 13.51,-189.63 13.63,-189.54 13.77,-189.68 13.91,-189.74 14.02,-189.71 14.14,-189.64 14.23,-189.70 14.12,-189.80 14.07,-189.89 14.08,-189.95 14.26,-189.94 14.35,-189.81 14.48,-189.85 14.48,-190.03 14.58,-190.06 14.70,-190.22 14.71,-190.30 14.65,-190.37 14.84,-190.63 15.05,-190.76 15.29,-190.80 15.50,-191.00 15.70,-191.06 15.98,-191.11 16.12,-191.11 16.20,-191.27 16.39,-191.30 16.67,-191.46 16.53,-191.60 16.44,-191.67 16.28,-191.99 16.59,-192.17 16.62,-192.36 16.72,-192.50 16.92,-192.57 16.89,-192.70 16.80,-192.79 16.77,-192.91 16.84,-193.06 16.85,-193.31 16.84,-193.61 16.75,-193.84 16.78,-194.09 16.66,-194.37 16.61,-194.55 16.69,-194.80 16.70,-194.92 16.41,-195.03 16.26,-195.20 16.11,-195.53 16.02,-195.72 16.00,-196.17 15.85,-196.48 15.78,-196.65 15.80,-196.88 15.66,-197.07 15.65,-197.35 15.78,-197.72 16.01,-198.04 16.06,-198.26 15.97,-198.45 15.78,-198.71 15.77,-198.82 15.86,-198.93 16.16,-198.93 16.25,-199.00 16.29,-199.16 16.28,-199.33 16.34,-199.42 16.49,-199.50 16.56,-199.78 16.51,-199.97 16.56,-200.23 16.73,-200.50 16.86,-200.68 16.94,-200.74 16.93,-201.06 16.84,-201.18 16.86,-201.28 16.68,-201.42 16.41,-201.62 16.23,-201.76 16.05,-201.94 15.87,-202.04 15.67,-202.17 15.75,-202.42 15.80,-202.59 15.88,-202.62 16.08,-202.81 16.33,-203.10 16.67,-203.40 17.01,-203.69 17.18,-203.97 17.31,-204.38 17.40,-204.65 17.43,-204.97 17.55,-205.47 17.61,-205.76 17.51,-206.16 17.53,-206.61 17.47,-206.96 17.45,-207.26 17.53,-207.65 17.77,-207.98 18.02,-208.20 18.20,-208.32 18.39,-208.33 18.56,-208.20 18.65,-207.78 18.75,-207.32 18.96,-207.04 19.00,-206.79 19.09,-206.67 19.11,-206.55 19.29,-206.56 19.48,-206.49 19.68,-206.50 19.79,-206.55 19.94,-206.51 20.13,-206.52 20.36,-206.48 20.49,-206.64 20.62,-206.41 21.01,-206.36 21.02,-206.25 21.33,-206.28 21.48,-206.19 21.68,-206.32 21.82,-206.56 22.24,-206.48 22.44,-206.84 23.03,-206.94 23.20,-207.13 23.76,-207.39 23.96,-207.69 24.59,-207.60 25.70,-208.08 26.63,-208.30 26.75,-208.56 26.80,-208.96 26.79,-209.17 27.03,-209.60 27.49,-209.49 27.86,-209.32 28.01,-209.21 28.39,-209.19 28.75,-209.25 28.89,-209.20 29.08,-209.28 29.23,-209.27 29.44,-209.14 29.57,-209.33 29.67,-209.54 29.78,-209.58 30.18,-209.43 30.39,-209.31 30.67,-209.20 30.92,-209.15 31.32,-209.08 31.51,-208.98 31.74,-208.77 32.02,-208.63 32.34,-208.60 32.67,-208.58 32.97,-208.55 33.26,-208.44 33.41,-208.32 33.63,-208.26 33.91,-208.27 34.08,-208.17 34.28,-207.99 34.42,-207.81 34.59,-207.69 34.65,-207.63 34.82,-207.59 34.97,-207.48 35.21,-207.29 35.33,-207.27 35.52,-207.40 35.63,-207.49 35.84,-207.70 36.20,-207.88 36.80,-208.17 36.73,-208.63 36.65,-208.76 36.24,-208.84 36.16,-209.00 36.01,-209.09 35.94,-209.21 35.94,-209.57 35.93,-209.81 35.87,-210.16 35.84,-210.36 35.94,-210.55 36.11,-210.62 36.16,-210.79 36.12,-210.96 35.89,-211.12 35.82,-211.19 35.84,-211.55 36.02,-211.66 36.14,-211.67 36.28,-211.81 36.38,-212.07 36.61,-212.22 36.71,-212.32 36.93,-212.58 36.96,-212.72 37.09,-212.80 37.14,-213.05 37.34,-213.23 37.58,-213.32 37.74,-213.32 37.97,-213.40 38.36,-213.40 38.52,-213.47 38.62,-213.65 38.56,-214.01 38.65,-214.25 38.62,-214.39 38.37,-214.65 38.16,-214.89 37.98,-214.98 37.72,-215.06 37.59,-215.19 37.60,-215.34 37.47,-215.54 37.39,-215.69 37.39,-215.84 37.30,-215.96 37.29,-216.12 37.23,-216.20 37.13,-216.23 37.09,-216.35 37.17,-216.56 37.23,-217.06 37.42,-217.15 37.61,-217.36 37.85,-217.41 38.05,-217.41 38.16,-217.52 38.29,-218.01 38.55,-218.05 38.69,-218.27 38.77,-218.55 39.01,-218.61 39.27,-218.63 39.58,-218.53 39.92,-218.68 40.22,-218.99 40.67,-219.39 41.15,-219.75 41.42,-219.96 41.84,-220.05 42.19,-220.25 42.73,-220.40 43.05,-220.33 43.43,-220.40 43.86,-220.25 44.32,-220.31 44.83,-220.46 45.24,-220.73 45.60,-220.87 45.74,-220.92 45.83,-221.04 46.12,-221.05 46.40,-221.21 46.63,-221.52 46.69,-221.95 46.74,-222.43 46.76,-222.96 46.77,-223.85 46.71,-224.42 46.73,-224.98 46.75,-226.01 46.75,-226.66 46.70,-227.19 46.87,-227.35 47.10,-227.43 47.24,-227.59 47.36,-227.86 47.41,-228.16 47.53,-228.27 47.57,-228.46 47.51,-228.56 47.45,-228.67 47.60,-228.75 47.67,-228.88 47.77,-228.99 47.85,-229.16 48.03,-229.21 48.19,-229.16 48.33,-229.18 48.50,-229.32 48.48,-229.50 48.53,-229.60 48.59,-229.43 48.62,-229.27 48.71,-229.06 48.83,-228.74 48.83,-228.66 48.91,-228.60 48.98,-228.57 49.01,-228.70 49.10,-228.63 49.12,-228.72 49.17,-228.62 49.23,-228.56 49.24,-228.67 49.32,-228.54 49.37,-228.68 49.42,-228.35 49.46,-228.24 49.58,-228.22 49.69,-228.32 49.80,-228.46 49.92,-228.65 49.99,-228.58 50.08,-228.43 50.16,-228.49 50.17,-228.63 50.27,-228.83 50.41,-229.13 50.45,-229.32 50.60,-229.40 50.98,-229.35 51.29,-229.40 51.51,-229.40 51.80,-229.48 52.02,-229.64 52.19,-229.67 52.32,-229.59 52.56,-229.44 52.66,-229.29 52.73,-229.14 52.93,-229.09 53.19,-228.95 53.34,-228.75 53.35,-228.68 53.34,-228.55 53.38,-228.49 53.48,-228.59 53.49,-228.45 53.38,-228.27 53.66,-228.54 53.65,-228.44 53.74,-228.45 53.76,-228.39 53.65,-228.21 53.65,-228.12 53.91,-228.15 54.10,-228.10 54.16,-228.02 54.12,-227.94 54.33,-227.95 54.38,-227.80 54.68,-227.84 54.93,-227.71 55.20,-227.77 55.54,-227.88 55.73,-227.90 56.09,-227.90 56.32,-227.81 56.61,-227.88 56.88,-227.86 57.06,-227.95 57.20,-227.97 57.44,-227.98 57.71,-227.95 57.94,-227.81 58.11,-227.57 58.23,-227.52 58.50,-227.38 58.75,-227.38 58.93,-227.44 59.00,-227.54 59.25,-227.58 59.42,-227.58 59.70,-227.69 59.94,-227.71 60.16,-227.61 60.34,-227.40 60.73,-227.23 60.98,-227.25 61.20,-227.48 61.30,-227.68 61.14,-227.83 60.79,-228.11 60.61,-228.26 60.59,-228.46 60.54,-228.67 60.55,-228.90 60.42,-229.16 60.22,-229.44 60.02,-229.73 59.79,-229.86 59.66,-230.04 59.36,-230.23 59.19,-230.49 59.18,-230.78 59.26,-231.07 59.32,-231.35 59.25,-231.56 59.07,-231.79 58.92,-231.93 58.86,-232.05 58.79,-231.93 58.73,-232.11 58.63,-231.97 58.54,-232.43 58.52,-232.95 58.62,-233.06 58.91,-233.05 58.95,-233.33 59.22,-233.69 59.46,-234.18 59.17,-234.60 59.35,-234.78 59.45,-234.74 59.45,-234.92 59.28,-235.03 59.34,-235.35 59.40,-235.71 59.46,-235.92 59.34,-236.32 59.70,-236.50 60.04,-236.68 60.56,-236.69 60.84,-236.50 61.01,-236.31 61.17,-236.40 61.33,-236.39 61.51,-236.44 61.55,-236.55 61.54,-236.73 61.65,-236.92 61.61,-237.05 61.47,-237.14 61.40,-237.28 61.35,-237.41 61.38,-237.53 61.27,-237.75 61.15,-237.97 60.96,-238.22 60.86,-238.39 60.87,-238.49 60.81,-238.57 60.91,-238.67 60.98,-238.64 61.04,-238.56 61.10,-238.57 61.12,-238.70 61.23,-238.66 61.34,-238.67 61.40,-238.81 61.50,-238.79 61.52,-238.88 61.72,-238.89 61.78,-238.95 61.97,-238.90 62.17,-238.92 62.37,-239.02 62.55,-239.15 62.66,-239.32 62.74,-239.42 62.85,-239.42 62.98,-239.40 63.10,-239.42 63.17,-239.58 63.24,-239.68 63.37,-239.73 63.49,-239.84 63.67,-239.88 63.62,-240.01 63.73,-240.05 63.74,-240.16 63.81,-240.19 63.78,-240.32 63.87,-240.33 63.99,-240.27 64.15,-240.19 64.25,-240.15 64.38,-240.13 64.51,-240.15 64.62,-240.23 64.74,-240.24 64.88,-240.18 64.99,-240.16 65.15,-240.07 65.43,-239.85 65.61,-239.76 65.72,-239.77 65.71,-239.86 65.63,-239.91 65.68,-240.07 65.63,-240.18 65.46,-240.32 65.60,-240.32 65.66,-240.28 65.61,-240.43 65.65,-240.51 65.74,-240.52 65.87,-240.43 65.92,-240.52 66.03,-240.57 66.09,-240.71 66.19,-240.71 66.23,-240.79 66.09,-240.78 66.14,-240.84 66.08,-240.88 65.90,-240.84 66.09,-241.04 65.96,-241.08 65.91,-241.22 66.15,-241.19 66.54,-241.14 66.27,-241.31 66.38,-241.36 66.58,-241.30 66.71,-241.33 66.85,-241.43 67.03,-241.54 67.26,-241.79 67.47,-242.02 67.61,-242.15 67.67,-242.43 67.91,-242.55 67.86,-242.73 67.81,-242.99 67.68,-243.18 67.66,-243.48 67.71,-243.61 67.57,-243.54 67.56,-243.67 67.45,-243.62 67.45,-243.85 67.30,-243.89 67.13,-243.88 67.05,-243.71 66.94,-243.48 66.75,-243.49 66.58,-243.60 66.37,-243.82 65.99,-244.10 65.77,-244.19 65.53,-244.20 65.37,-244.25 65.24,-244.30 65.33,-244.48 65.43,-244.71 65.50,-244.93 65.63,-245.03 65.67,-245.19 65.91,-245.37 66.02,-245.56 65.87,-245.49 65.93,-245.64 65.77,-245.61 65.89,-245.85 66.03,-245.86 65.99,-246.09 65.88,-246.29 66.03,-246.29 66.05,-246.51 66.10,-246.69 66.07,-246.92 66.09,-247.11 66.19,-247.26 66.32,-247.37 66.36,-247.52 66.54,-247.69 66.65,-247.89 66.78,-248.04 66.96,-248.11 67.10,-248.21 67.11,-248.46 67.19,-248.55 67.39,-248.55 67.55,-248.64 67.65,-248.84 67.87,-249.00 68.07,-249.18 68.28,-249.39 68.41,-249.42 68.50,-249.34 68.63,-249.37 68.81,-249.45 69.07,-249.49 69.37,-249.49 69.70,-249.68 69.90,-249.93 69.77,-250.03 69.70,-250.27 69.46,-250.01 69.50,-250.16 69.45,-250.23 69.30,-250.09 69.36,-250.24 69.18,-250.17 69.26,-250.28 69.17,-250.40 69.12,-250.57 69.20,-250.75 69.24,-250.82 69.22,-250.98 69.36,-251.11 69.59,-251.34 69.75,-251.57 69.91,-251.86 70.06,-252.12 70.22,-252.16 70.30,-252.26 70.49,-252.33 70.64,-252.47 70.72,-252.56 70.68,-252.67 70.84,-252.77 70.84,-252.93 70.95,-252.78 71.18,-252.76 71.14,-253.03 71.20,-253.10 71.28,-253.14 71.39,-252.98 71.50,-252.93 71.57,-253.14 71.76,-253.31 71.86,-253.31 71.91,-253.44 71.83,-253.61 71.83,-253.75 71.89,-253.86 71.83,-254.09 71.75,-254.27 71.85,-254.38 72.03,-254.31 72.24,-254.30 72.41,-254.19 72.51,-254.18 72.46,-254.29 72.63,-254.44 72.89,-254.47 73.22,-254.49 73.44,-254.55 73.55,-254.74 73.47,-254.75 73.29,-254.72 73.31,-254.78 73.53,-254.83 73.49,-254.93 73.33,-254.96 73.34,-255.16 73.28,-255.28 73.13,-255.37 73.33,-255.67 73.34,-256.05 73.37,-256.29 73.41,-256.47 73.44,-256.59 73.35,-256.70 73.50,-256.83 73.45,-257.02 73.55,-257.31 73.53,-257.54 73.56,-257.68 73.55,-258.20 73.39,-258.45 73.16,-258.59 73.01,-258.78 72.99,-259.01 73.20,-259.40 73.39,-259.65 73.50,-259.92 73.16,-259.97 72.85,-259.94 72.54,-259.94 72.36,-260.18 72.17,-260.32 72.02,-260.53 71.93,-260.72 71.89,-260.90 72.07,-261.21 72.30,-261.49 72.14,-261.67 72.08,-261.84 72.20,-261.99 72.29,-262.25 72.28,-262.48 72.44,-262.64 72.49,-262.86 72.48,-263.08 72.46,-263.27 72.54,-263.56 72.57,-263.70 72.65,-263.79 72.65,-264.00 72.62,-264.22 72.66,-264.48 72.76,-264.47 72.82,-264.56 72.85,-264.79 72.95,-264.86 72.93,-265.02 73.03,-265.11 72.98,-265.18 73.01,-265.32 72.91,-265.49 73.21,-265.49 73.47,-265.38 73.47,-265.54 73.43,-265.64 73.17,-265.91 72.89,-266.11 72.92,-266.27 73.08,-266.20 73.25,-266.22 73.38,-266.16 73.29,-266.31 73.13,-266.38 73.31,-266.42 73.10,-266.53 73.33,-266.61 73.18,-266.67 73.28,-266.74 73.28,-266.82 73.21,-266.88 73.35,-266.93 73.30,-267.04 73.19,-267.04 73.09,-267.18 72.97,-267.36 72.97,-267.53 72.75,-267.81 72.67,-267.93 72.66,-268.08 72.57,-268.21 72.58,-268.41 72.65,-268.66 72.62,-268.90 72.60,-269.22 72.56,-269.44 72.61,-269.65 72.54,-269.82 72.69,-269.98 72.72,-269.81 72.82,-270.06 72.89,-269.95 72.94,-270.02 72.98,-269.94 73.08,-270.15 73.25,-270.27 73.27,-270.50 73.49,-270.63 73.39,-270.73 73.58,-270.78 73.64,-271.02 73.81,-270.99 73.93,-271.09 73.83,-271.31 73.80,-271.46 73.86,-271.52 73.95,-271.46 73.97,-271.67 74.14,-271.86 74.12,-272.03 73.88,-272.15 74.08,-272.22 73.98,-272.42 74.13,-272.44 74.01,-272.62 74.18,-272.72 74.34,-272.77 74.42,-272.88 74.43,-273.03 74.57,-273.12 74.59,-273.33 74.70,-273.22 74.71,-273.38 74.85,-273.27 74.94,-273.24 75.01,-273.34 74.99,-273.50 75.17,-273.68 75.27,-273.68 75.56,-273.82 75.75,-274.04 75.87,-274.05 75.97,-274.16 76.10,-274.17 76.16,-274.37 76.29,-274.66 76.38,-274.90 76.45,-275.11 76.54,-275.18 76.73,-275.16 76.70,-275.32 76.89,-275.31 76.81,-275.49 76.99,-275.47 77.02,-275.53 76.89,-275.61 77.01,-275.69 76.84,-275.85 76.76,-276.14 76.87,-276.23 76.93,-276.42 76.82,-276.46 76.71,-276.68 76.57,-276.82 76.53,-276.98 76.60,-277.17 76.56,-277.33 76.63,-277.54 76.52,-277.70 76.58,-277.98 76.70,-278.18 76.68,-278.39 76.77,-278.51 76.74,-278.77 76.86,-278.90 76.86,-279.04 77.05,-279.06 77.26,-279.15 77.22,-279.35 77.27,-279.59 77.33,-279.76 77.48,-279.91 77.32,-279.90 77.19,-280.03 77.16,-280.26 77.29,-280.48 77.29,-280.65 77.38,-280.65 77.40,-280.73 77.26,-280.95 77.24,-281.18 77.29,-281.36 77.25,-281.61 77.38,-281.82 77.37,-281.96 76.99,-282.21 76.82,-282.39 76.74,-282.59 76.63,-282.68 76.55,-282.84 76.71,-282.88 76.77,-283.01 76.88,-283.09 76.93,-283.14 76.90,-283.33 76.79,-283.51 76.58,-283.67 76.40,-283.85 76.27,-284.09 76.18,-284.23 76.04,-284.37 76.08,-284.56 76.08,-284.76 76.01,-284.87 76.07,-284.98 76.16,-285.07 76.03,-285.19 76.19,-285.31 76.30,-285.48 76.31,-285.68 76.33,-285.86 76.19,-286.17 76.03,-286.32 75.90,-286.30 75.71,-286.40 75.55,-286.38 75.26,-286.75 75.05,-287.05 74.76,-287.31 74.46,-287.47 74.31,-287.60 74.29,-287.83 74.21,-288.03 74.26,-288.21 74.03,-288.48 74.01,-288.67 73.89,-288.76 73.78,-288.63 73.66,-288.62 73.54,-288.51 73.45,-288.54 73.49,-288.61 73.64,-288.71 73.63,-288.76 73.49,-288.82 73.60,-289.09 73.58,-289.31 73.54,-289.51 73.66,-289.72 73.70,-289.90 73.81,-289.91 73.90,-290.02 73.94,-290.20 74.10,-290.30 74.21,-290.30 74.29,-290.52 73.74,-290.95 73.61,-290.84 73.51,-290.88 73.54,-291.09 73.52,-291.36 73.23,-291.62 73.14,-291.77 72.99,-291.94 72.68,-292.01 72.55,-292.26 72.63,-292.41 72.81,-292.42 72.96,-292.52 73.07,-293.07 73.24,-293.47 73.21,-293.78 73.19,-294.15 73.23,-294.41 73.32,-294.58 73.26,-294.93 73.02,-295.13 72.66,-295.35 72.45,-295.57 72.43,-296.59 72.51,-296.95 72.64,-297.31 72.76,-297.98 72.85,-298.24 73.05,-298.61 73.25,-299.08 73.27,-299.49 73.34,-299.81 73.54,-300.17 74.05,-300.58 74.37,-300.86 74.61,-301.18 74.86,-301.42 75.20,-301.88 75.46,-302.11 75.80,-302.26 76.11,-302.28 76.51,-302.39 76.98,-302.80 77.37,-302.98 77.58,-303.23 77.90,-303.91 77.83,-304.10 77.57,-304.34 77.40,-304.49 77.39,-304.74 77.77,-305.49 77.86,-305.90 77.90,-306.17 77.89,-306.80 77.91,-307.07 78.07,-307.25 78.49,-307.23 78.81,-307.74 79.26,-307.58 79.89,-307.08 81.50,-307.21 81.74,-307.38 82.01,-307.64 82.37,-308.11 82.96,-309.29"/>
      </g>
    </g>
  </g>
</svg>
